PathFileType	4	(X/Y/Z)	./resultDataOpenSim/trcMotMarkerGrf/sub10/qtm-03-05.trc
DataRate	CameraRate	NumFrames	NumMarkers	Units	OrigDataRate	OrigDataStartFrame	OrigNumFrames
250.000000	250.000000	8	24	m	250.000000	314	502
Frame#	Time	L.Toe.Tip			R.Toe.Tip			L.Ankle.Lat			R.Ankle.Lat			L.Ankle.Med			R.Ankle.Med			L.Heel			R.Heel			L.Knee.Lat			R.Knee.Lat			L.Knee.Med			R.Knee.Med			L.Thigh.Upper			R.Thigh.Upper			L.ASIS			R.ASIS			V.Sacral			L.Acromium			R.Acromium			C7			L.Elbow			R.Elbow			L.Wrist.Lat			R.Wrist.Lat
		X1	Y1	Z1	X2	Y2	Z2	X3	Y3	Z3	X4	Y4	Z4	X5	Y5	Z5	X6	Y6	Z6	X7	Y7	Z7	X8	Y8	Z8	X9	Y9	Z9	X10	Y10	Z10	X11	Y11	Z11	X12	Y12	Z12	X13	Y13	Z13	X14	Y14	Z14	X15	Y15	Z15	X16	Y16	Z16	X17	Y17	Z17	X18	Y18	Z18	X19	Y19	Z19	X20	Y20	Z20	X21	Y21	Z21	X22	Y22	Z22	X23	Y23	Z23	X24	Y24	Z24

314	1.252	0.078798889	-0.0075139781	-0.031737152	0.87904656	0.050518945	0.13530159	-0.012124004	0.088889021	-0.068619353	0.74240392	0.055004197	0.18223957	0.008133428	0.10396836	0.012218039	0.75197421	0.080966383	0.096651272	-0.078326187	0.10298269	-0.024730345	0.6911121	0.026019582	0.14106499	0.2371494	0.3879241	-0.095713374	0.65363481	0.44192959	0.18969263	0.24901494	0.35336056	0.02246139	0.65725779	0.4436656	0.062342655	0.34366081	0.76137119	-0.13336315	0.4662823	0.80198892	0.23758084	0.42946898	0.86232474	-0.10026393	0.50125245	0.88763958	0.13705085	0.27913715	0.87736446	0.085395526	0.42583579	1.3460695	-0.10920684	0.41045251	1.3315142	0.21248292	0.33451697	1.3676705	0.043274198	0.47323543	1.0009097	-0.18134404	0.22088205	1.0414632	0.21025463	0.70926464	0.98155245	-0.093776518	0.20646535	0.82480883	0.31688492
315	1.256	0.079953322	-0.0074953553	-0.031747602	0.87989566	0.048428834	0.13493128	-0.0076972403	0.091993823	-0.069216868	0.74364551	0.054793432	0.1824456	0.013481961	0.10630276	0.011353954	0.75347136	0.080728886	0.096815639	-0.072904849	0.10763849	-0.024842968	0.69186173	0.026599908	0.14147144	0.24506666	0.38826861	-0.095833875	0.65700112	0.44289434	0.1894278	0.25661955	0.35327192	0.021847145	0.6625321	0.44494094	0.062409187	0.35194465	0.76092502	-0.13255437	0.47275589	0.80312042	0.23865007	0.43768925	0.86214217	-0.098862257	0.50804492	0.88843593	0.1385481	0.28607386	0.87833971	0.08534184	0.43281257	1.347203	-0.10795253	0.41704991	1.3319231	0.21364173	0.34127102	1.3681567	0.044559706	0.47856666	1.0015783	-0.18013397	0.22840826	1.0415032	0.21061965	0.71456255	0.98102263	-0.092771719	0.21287531	0.82517969	0.31770195
316	1.26	0.081239842	-0.0075215441	-0.031772971	0.88073742	0.046620362	0.13472067	-0.0029172355	0.095080696	-0.069808739	0.74462936	0.054640362	0.18251961	0.019208021	0.10855466	0.010475419	0.75468417	0.080497848	0.096860003	-0.067061841	0.11228245	-0.024787595	0.69245243	0.027054414	0.14175412	0.25330788	0.38854332	-0.095997995	0.66137925	0.44414586	0.18925422	0.26455166	0.35305719	0.021357045	0.66789073	0.44640804	0.062401747	0.36032519	0.76043231	-0.13176725	0.47920386	0.80442945	0.23966358	0.44594516	0.86198019	-0.097387998	0.51483775	0.88934549	0.140054	0.29272659	0.87938823	0.085257209	0.43981147	1.3483632	-0.10666035	0.42363598	1.3323774	0.21478878	0.34805481	1.3686894	0.045836003	0.48380238	1.0022653	-0.1789456	0.23616264	1.0414406	0.21099925	0.71976352	0.98040452	-0.09183654	0.21954935	0.82553487	0.31854295
317	1.264	0.082665904	-0.0076367797	-0.031811589	0.88177138	0.045374906	0.13476296	0.0022346505	0.098116822	-0.070391461	0.74544086	0.054575647	0.18245042	0.025310357	0.11069492	0.0095881192	0.75568406	0.080271431	0.096781002	-0.060771362	0.11693089	-0.024592397	0.69298392	0.027415676	0.14186411	0.26186014	0.3887341	-0.096205314	0.66739171	0.44548815	0.18910215	0.27284961	0.35273615	0.020895302	0.67336591	0.44799505	0.062309717	0.3687677	0.75990663	-0.13102483	0.48565817	0.80591061	0.2406328	0.45422278	0.8618332	-0.095846511	0.52158668	0.89035821	0.14151791	0.29910064	0.88048978	0.085140721	0.44681708	1.3495407	-0.10533751	0.43019981	1.3328769	0.21592638	0.35485619	1.3692627	0.047110896	0.4889473	1.0029706	-0.17780409	0.24417426	1.0412929	0.21136268	0.72487328	0.97970579	-0.090960623	0.2264195	0.82586521	0.3193916
318	1.268	0.08423295	-0.007867847	-0.031860392	0.88293946	0.044629878	0.1350754	0.0077755102	0.1010623	-0.070962639	0.74614492	0.054615901	0.18227297	0.031792433	0.11269792	0.0087105149	0.75658474	0.080057921	0.096617796	-0.053984965	0.12158273	-0.024379181	0.69351045	0.027734654	0.14180477	0.27070464	0.38883128	-0.096454307	0.67473211	0.44687241	0.18900151	0.28153052	0.35231538	0.020393796	0.67894864	0.44964737	0.062132444	0.37725108	0.75935961	-0.13036965	0.492144	0.80753851	0.24156262	0.46252055	0.86169537	-0.094234961	0.52826922	0.8914666	0.14291643	0.30539644	0.88159616	0.08496184	0.45382176	1.3507278	-0.10399314	0.43672964	1.3334218	0.21706282	0.36166075	1.3698743	0.048381754	0.49400052	1.0036926	-0.17674216	0.25237094	1.041132	0.21169523	0.72990044	0.97893098	-0.090132437	0.23343193	0.82615794	0.32023549
319	1.272	0.085917209	-0.0082073803	-0.031933694	0.88406944	0.04407657	0.13557001	0.013711074	0.10387422	-0.071526256	0.74678011	0.054725991	0.18204851	0.038650036	0.11455665	0.0078713934	0.75748873	0.079857353	0.096422016	-0.046704047	0.12620739	-0.024234252	0.69401937	0.028034735	0.14165277	0.27981815	0.38882736	-0.096742169	0.68276502	0.44829028	0.1890054	0.29057545	0.35178455	0.019829455	0.68460378	0.45131955	0.061888066	0.38577168	0.75879063	-0.12982018	0.4986653	0.80927476	0.2424505	0.47083347	0.86156294	-0.092549081	0.53492429	0.89267633	0.14427421	0.31188213	0.88264264	0.084684171	0.46082351	1.3519132	-0.10262938	0.44321747	1.334006	0.21819958	0.36845105	1.3705183	0.04963467	0.49895988	1.0044234	-0.17577569	0.26057403	1.041032	0.2120338	0.73485118	0.97807505	-0.089349597	0.24057014	0.82640433	0.32107549
320	1.276	0.087671975	-0.0086036678	-0.032064009	0.88505354	0.043485106	0.13608185	0.02003187	0.10652324	-0.072087266	0.74734436	0.054843719	0.18184121	0.045842639	0.11628642	0.0070890572	0.75841261	0.079658374	0.096234247	-0.039012231	0.13076926	-0.024172116	0.69446927	0.028298161	0.14150716	0.28917055	0.38871787	-0.097062993	0.69086556	0.44971391	0.18914888	0.29994884	0.35112968	0.01921385	0.69029116	0.45296547	0.061619829	0.39432647	0.75819246	-0.12934921	0.50520666	0.81108381	0.24329394	0.47912863	0.86143667	-0.090799019	0.54161415	0.89398513	0.14563523	0.31869049	0.88357984	0.084296902	0.46782081	1.3530811	-0.1012441	0.44966179	1.334621	0.21932688	0.37521073	1.3711828	0.050857766	0.50383548	1.0051643	-0.17488151	0.2685986	1.0410191	0.21245442	0.73972303	0.9771252	-0.088625534	0.24782403	0.82660502	0.32191659
321	1.28	0.089468651	-0.0089562183	-0.032267779	0.88588978	0.042849982	0.13644659	0.026716119	0.10901657	-0.072642951	0.74778142	0.054938574	0.1817101	0.053294115	0.11792605	0.0063662453	0.75928337	0.079451003	0.096073487	-0.031024698	0.13525925	-0.024209942	0.69483888	0.028499843	0.14142407	0.29872759	0.38850756	-0.097410713	0.69853529	0.45106794	0.18942059	0.30961859	0.35034261	0.018576426	0.69597845	0.45453756	0.061388146	0.40289404	0.75756054	-0.12888715	0.51175022	0.81294688	0.24409464	0.48735427	0.86132029	-0.089006777	0.54833805	0.89535468	0.14700547	0.32574154	0.88441853	0.083829755	0.47480773	1.3542163	-0.099837807	0.45606385	1.3352609	0.22043272	0.3819266	1.3718519	0.052052975	0.50865708	1.0059385	-0.17400899	0.2764101	1.041054	0.21297972	0.74450854	0.97606905	-0.087982148	0.25515125	0.82676339	0.3227533
